#!OML:ASF E:/inclinewalkrobotboard/Project1/Captureday1/Session1/subject1.ASF
:FULLY-SPECIFIED
:DEGREES
226
root 0 0 0 -1.0907380804389355 -2.7082169346591876 -2.4473104043778466
lowerback 9.439014790095417 0.3494044634138419 0.6735911712322888
upperback 0.006428518589082444 0.6815368760816375 1.7363748904203864
thorax -5.183146181935671 0.3538509920191037 1.3507774653673597
lowerneck -16.488024351482828 -2.97923451361557 -1.9432687690867922
upperneck 19.86656117337335 -3.815296525946514 0.68430829682702
head 9.047920512590649 -1.8523145344651484 0.07642430339815154
rclavicle -6.599322368429706E-16 -4.80603852218502E-16
rhumerus -23.843442326484336 -18.86117603542915 -74.98074037168142
rradius 27.037289620472926
rwrist 6.434339966829757
rhand -15.851281057219829 21.002161785799615
rfingers 7.125020000000034
rthumb 10.32245905297836 -8.481440248913197
lclavicle -6.609993018215163E-16 -3.155802783487217E-16
lhumerus -29.737250279053406 1.4145073373162464 78.1560447211061
lradius 28.72692050829922
lwrist 3.2103632698259545
lhand -23.910369478979987 23.321112960822088
lfingers 7.125020000000041
lthumb 2.509082163985912 53.00943765378683
rfemur -2.49449151195131 -8.146845308448476 13.993296396042666
rtibia 38.98243724579157
rfoot -8.989787028067578 -8.194761940938283
rtoes 6.350335975348614
lfemur -14.003858592552106 -0.5807724838227823 -20.732862745534483
ltibia 34.24186468661807
lfoot -9.098736447893552 -0.544591553159627
ltoes -2.1297245197610053
227
root 0 0 0 -1.039554136096097 -2.7367927675760786 -2.460008757307386
lowerback 9.413585240344517 0.3508764176671181 0.6699345719018015
upperback -0.010815048154800166 0.6828618742907786 1.7372089607745629
thorax -5.187464956902662 0.3547518788033175 1.3542445755418395
lowerneck -16.47791588520156 -2.9729517634209985 -1.939290565291596
upperneck 19.872641873920053 -3.8084281303904577 0.6899625826345188
head 9.048683693281005 -1.8484499552659708 0.07821713400937069
rclavicle -6.591832470527189E-16 -4.786939967259918E-16
rhumerus -23.748922109665173 -18.86986423765099 -74.92374471416656
rradius 27.03839400094388
rwrist 6.480354993986776
rhand -15.810070499493746 20.96851148444749
rfingers 7.125020000000033
rthumb 10.361810102206096 -8.509985846030329
lclavicle -6.594270889047551E-16 -3.1750021074646446E-16
lhumerus -29.691120189319292 1.4248031452737138 78.08261153903149
lradius 28.73854095051901
lwrist 3.1754170439101106
lhand -23.85808003014434 23.322801305878038
lfingers 7.12502000000004
lthumb 2.5596736951636174 53.005238290067254
rfemur -2.3289562261829815 -8.347959462655027 13.795817854315175
rtibia 38.992772975802396
rfoot -9.011068195762139 -8.22075439672828
rtoes 6.389311064741285
lfemur -14.105801581664167 -0.55077393737586 -20.755272261642887
ltibia 34.280464563770025
lfoot -9.131338675644779 -0.4956744805364721
ltoes -2.0902582022910945
228
root 0 0 0 -0.9970576801099256 -2.757342124942303 -2.469547419172118
lowerback 9.391773171271797 0.351593567569212 0.6664512142373131
upperback -0.0254791193589341 0.6834971496125681 1.7383157346831084
thorax -5.190853181296815 0.3552187096361684 1.3576648577213302
lowerneck -16.468885560154405 -2.968384552054295 -1.9364610801448574
upperneck 19.8790721551319 -3.8034509425435785 0.6943637848113582
head 9.049807953464878 -1.8458294011344112 0.0795911501885147
rclavicle -6.581477974886722E-16 -4.795750347179753E-16
rhumerus -23.681408930492722 -18.87672751068486 -74.88163947607075
rradius 27.04014629385091
rwrist 6.5109746916673465
rhand -15.781592601427334 20.94505465601661
rfingers 7.125020000000033
rthumb 10.388987639178508 -8.529933606842945
lclavicle -6.581948418200692E-16 -3.1921946417731016E-16
lhumerus -29.652204148508915 1.4334421066222411 78.02139280434358
lradius 28.74861506783025
lwrist 3.146528330921843
lhand -23.815105480131553 23.324131710625057
lfingers 7.125020000000039
lthumb 2.6014700111749853 53.00170652121429
rfemur -2.169858194641847 -8.540584835496858 13.6083313061974
rtibia 39.000217764678744
rfoot -9.032637775194587 -8.245606704166667
rtoes 6.4254839681530385
lfemur -14.183453322103396 -0.5283971594252943 -20.772939145341514
ltibia 34.307332731877615
lfoot -9.158009863467159 -0.45791130748140674
ltoes -2.0605104694318648
229
root 0 0 0 -0.9697045077715565 -2.769604255533787 -2.4752299828522393
lowerback 9.377503355964866 0.35190918664662274 0.6640390647933097
upperback -0.03497948941673634 0.6837555555175047 1.739141788325751
thorax -5.192953598604021 0.3554474520426487 1.3600618376852704
lowerneck -16.462901055355406 -2.9656381296297463 -1.9347783208503917
upperneck 19.883528609189014 -3.800416772075827 0.697117034997913
head 9.050641625770904 -1.844297371625267 0.08045423406587349
rclavicle -6.57549546411853E-16 -4.800470095172738E-16
rhumerus -23.63341412947014 -18.8815560663772 -74.85176266063539
rradius 27.04134067362686
rwrist 6.533049571993786
rhand -15.76120169131856 20.92828133197199
rfingers 7.125020000000032
rthumb 10.408445623938604 -8.544198113988632
lclavicle -6.571887292813235E-16 -3.2053147113199867E-16
lhumerus -29.621952555841652 1.440226395890713 77.97356428792729
lradius 28.75642729320361
lwrist 3.1238519197959533
lhand -23.781439770050515 23.325160728950518
lfingers 7.125020000000039
lthumb 2.6341624051328907 52.998941781971205
rfemur -2.0528961816241633 -8.682636609569471 13.469835462168291
rtibia 39.006671952016035
rfoot -9.048251027904454 -8.263930132857428
rtoes 6.45248049392487
lfemur -14.241123623530854 -0.5117289211678973 -20.786001911130434
ltibia 34.327560608955345
lfoot -9.177617423333398 -0.429923960491994
ltoes -2.038422324309078
230
root 0 0 0 -0.9518723076700653 -2.776764261528129 -2.4785357129485277
lowerback 9.367993148447926 0.35198144788715513 0.6622985502489027
upperback -0.041243610107589035 0.6837820641872986 1.7397837817137725
thorax -5.194263615980011 0.3555239883574804 1.3618024489650304
lowerneck -16.458844167738626 -2.964014286236652 -1.9338014087954525
upperneck 19.886729970036512 -3.7985952336858917 0.6988485361459427
head 9.051287119716045 -1.8434304545783142 0.08099918152280705
rclavicle -6.571569953492273E-16 -4.804163573576389E-16
rhumerus -23.600101035721934 -18.884901022247316 -74.83111235932972
rradius 27.042181974288695
rwrist 6.54835741079221
rhand -15.747126209182499 20.916693835890996
rfingers 7.125020000000032
rthumb 10.421876450548186 -8.554050232724897
lclavicle -6.563834099042795E-16 -3.215638627500791E-16
lhumerus -29.597880455109937 1.4455861369567113 77.93557936486306
lradius 28.762662148926687
lwrist 3.1058733978436717
lhand -23.754660408554408 23.325962552636167
lfingers 7.125020000000038
lthumb 2.660168835112323 52.99672322352904
rfemur -1.9627042973512232 -8.792441607820791 13.362742612851036
rtibia 39.01208337349874
rfoot -9.060226455855059 -8.278060232732571
rtoes 6.473463612745352
lfemur -14.283146671667218 -0.4995774578118599 -20.79552854078625
ltibia 34.34232660086281
lfoot -9.1919083887153 -0.40952580803354977
ltoes -2.022324579108002
